<svg
  aria-labelledby="title"
  height="128"
  version="1.1"
  viewBox="0 0 231 231"
  width="128"
  xmlns="http://www.w3.org/2000/svg"
>
  <title id="title">Prohibited</title>
  <path
     style="opacity:0.2"
     d="m 230.85697,115.56633 q 0,47.9531 -33.6094,81.5625 -33.6094,33.6094 -81.5625,33.6094 -47.953098,0 -81.562498,-33.6094 -33.60940041,-33.6094 -33.60940041,-81.5625 0,-47.953096 33.60940041,-81.562496 33.6094,-33.6093996 81.562498,-33.6093996 47.9531,0 81.5625,33.6093996 33.6094,33.6094 33.6094,81.562496 z m -18.4219,0 q 0,-40.359396 -28.1953,-68.554696 -28.1953,-28.1953 -68.5547,-28.1953 -35.859398,0 -62.999998,23.2031 L 189.09127,178.42573 q 23.3438,-27.1407 23.3438,-62.8594 z m -36.9844,75.9375 L 39.606972,55.660034 q -20.6719,26.2969 -20.6719,59.906296 0,40.3594 28.1953,68.5547 28.1953,28.1953 68.554698,28.1953 33.4688,0 59.7656,-20.8125 z" />
</svg>
